<svg width="99" height="33" viewBox="0 0 99 33" fill="none" xmlns="http://www.w3.org/2000/svg">
<path id="Vector" fill-rule="evenodd" clip-rule="evenodd" d="M99 10.6178V26.7167L90.0865 32.8826H84.6068V30.142L80.4959 32.8826H75.7003V30.142L72.6173 32.8826H63.7115L60.9716 30.142L60.2862 32.8826L52.4251 32.8615L49.3253 30.142L48.9829 32.8826L40.0771 32.8615L39.7347 30.142L37.3372 32.8615L23.6358 32.8826L20.8952 31.5123V32.8826H13.359L5.13804 27.7446L0 22.6065V0H10.6185L15.7565 5.13804H39.0492V0H58.2318V5.13804H63.0274V7.8786L65.768 5.13804H71.5915L76.7296 0H87.6904V5.13804H93.514L99 10.6178ZM13.359 7.5348H8.56339V2.39677H2.39747V21.5793L6.16522 25.6895H13.359V19.1812H8.56339V13.7014H13.359V7.5348ZM39.0492 7.5348H32.8833V19.1819H30.4858V7.5348H24.6623V19.1819H22.2648V7.5348H15.7565V25.6895H34.9391L39.0492 21.5793V7.5348ZM47.2702 7.5348H41.4467V25.6895H47.2702V7.5348ZM47.2702 2.39677H41.4467V5.13733H47.2702V2.39677ZM60.6293 7.5348H55.8336V2.39677H49.6684V21.5793L53.4361 25.6895H60.6278V19.1812H55.8322V13.7014H60.6278L60.6293 7.5348ZM76.3858 7.5348H66.7952L63.0274 11.3026V21.5793L67.1376 25.6895H76.3851V19.1812H69.5343V13.7014H76.3851L76.3858 7.5348ZM96.5955 11.3026L92.4854 7.5348H85.2923V2.39677H78.7839V25.6895H85.2923V13.7H90.0879V25.6888H96.5962L96.5955 11.3026Z" fill="white"/>
</svg>
