<svg width="167" height="30" viewBox="0 0 167 30" fill="none" xmlns="http://www.w3.org/2000/svg">
<g id="Group">
<path id="Vector" d="M32.9467 0.16748L26.9899 23.3092L50.1317 29.266L56.0884 6.12424L32.9467 0.16748ZM43.226 17.5633L38.6926 16.4036L39.8523 11.8701L44.3858 13.0299L43.226 17.5633Z" fill="white"/>
<path id="Vector_2" d="M15.6035 2.75073C21.613 2.75073 24.3015 6.33533 24.3015 9.91992C24.3015 12.1339 23.3526 13.979 21.5603 15.1914C24.1433 18.0907 25.672 22.0443 26.1992 26.6305H15.2345C14.7601 20.3047 13.4422 17.7744 10.5956 17.7744V26.6305H0V2.75073H15.6035ZM10.5956 12.2921H10.8592C12.8097 12.2921 13.7058 11.6068 13.7058 10.0254C13.7058 9.02378 13.1787 7.65319 11.2282 7.65319H10.5956V12.2921Z" fill="white"/>
<path id="Vector_3" d="M73.537 2.75073C81.286 2.75073 82.8147 6.65162 82.8147 9.44549C82.8147 11.3959 82.1294 13.1882 79.7046 14.5588C82.7093 16.1403 83.4473 17.9853 83.4473 20.0411C83.4473 23.7312 80.8643 26.6305 75.2765 26.6305H58.6187V2.75073H73.537ZM69.1616 12.2394H69.4252C71.7447 12.2394 72.5881 11.6068 72.5881 9.91992C72.5881 8.60206 71.9555 7.60048 69.7942 7.60048H69.1616V12.2394ZM69.1616 21.4117H69.4779C71.9028 21.4117 72.8517 20.7264 72.8517 18.9341C72.8517 17.3527 72.1137 16.2457 69.8996 16.2457H69.1616V21.4117Z" fill="white"/>
<path id="Vector_4" d="M86.6629 2.75073H97.2585V20.621H106.536V26.6305H86.6629V2.75073Z" fill="white"/>
<path id="Vector_5" d="M109.752 2.75073V26.6305H133.632V2.75073H109.752ZM124.038 17.0364H119.346V12.3975H123.985V17.0364H124.038Z" fill="white"/>
<path id="Vector_6" d="M136.478 2.75073H148.023L151.555 7.12605L154.928 2.75073H166.42L157.353 14.5061L167 26.6832H155.403L151.607 21.9389L147.97 26.6832H136.478L145.809 14.6115L136.478 2.75073Z" fill="white"/>
</g>
</svg>
