<svg width="147" height="29" viewBox="0 0 147 29" fill="none" xmlns="http://www.w3.org/2000/svg">
<path id="Vector" d="M140.76 3.67261C140.76 2.01313 142.101 0.652908 143.743 0.652908C144.537 0.652908 145.276 0.979362 145.851 1.52345C146.425 2.09475 146.726 2.85647 146.726 3.6454C146.726 4.43433 146.425 5.19606 145.851 5.76735C145.276 6.33865 144.537 6.6651 143.743 6.6651C142.101 6.6651 140.76 5.33208 140.76 3.67261ZM140.514 3.67261C140.514 5.46811 141.964 6.93715 143.77 6.93715C144.646 6.93715 145.44 6.61069 146.042 5.98499C146.644 5.35929 147 4.54315 147 3.67261C147 2.80206 146.672 1.98593 146.042 1.36023C145.413 0.734522 144.619 0.408068 143.77 0.408068C141.964 0.408068 140.514 1.87711 140.514 3.67261ZM142.539 5.60413H143.004V4.08068H144.044C144.208 4.08068 144.345 4.08068 144.455 4.13508C144.592 4.2167 144.674 4.37993 144.701 4.59756L144.756 5.19606V5.46811C144.783 5.52251 144.783 5.54972 144.81 5.57692H145.385V5.49531C145.303 5.46811 145.276 5.38649 145.248 5.27767C145.221 5.22326 145.221 5.11445 145.221 4.97842L145.194 4.51595C145.194 4.29831 145.139 4.16229 145.084 4.08068C145.002 3.99906 144.893 3.91745 144.756 3.86304C144.92 3.78143 145.029 3.67261 145.112 3.53659C145.194 3.40056 145.221 3.23734 145.221 3.0197C145.221 2.61163 145.057 2.33959 144.756 2.17636C144.592 2.09475 144.373 2.06754 144.126 2.06754H142.566L142.539 5.60413ZM142.977 3.67261V2.44841H144.072C144.236 2.44841 144.373 2.47561 144.455 2.53002C144.619 2.61163 144.701 2.80206 144.701 3.0469C144.701 3.29174 144.646 3.45497 144.509 3.53659C144.4 3.6182 144.236 3.67261 144.017 3.67261H142.977ZM13.3014 8.16135L0 28.9456H9.08658L21.8954 9.0863L13.3014 8.16135ZM68.0672 7.69887V0H42.2033C38.6727 0.217636 37.14 1.90432 35.9905 3.10131C34.7589 4.37993 34.0747 7.07317 34.0747 7.07317V0.054409H20.308C19.2679 0.054409 18.2826 0.489681 17.5437 1.52345C16.7773 2.53002 13.6299 7.69887 13.6299 7.69887H68.0672ZM138.406 7.69887V0H110.736C107.233 0.217636 105.673 1.90432 104.523 3.10131C103.291 4.37993 102.607 7.07317 102.607 7.07317V7.69887H138.406ZM77.1538 0.0272045H69.4083V7.69887H77.1538V0.0272045ZM102.525 0.0272045H94.8069V7.69887H102.525V0.0272045ZM102.525 10.4737L94.9164 10.0113V18.9071C94.9164 18.9071 94.889 21.4644 92.3984 21.4644H79.3707C79.3707 21.4644 77.1538 21.2739 77.1538 18.9343V8.81426L69.4904 8.27017V21.8996C70.722 28.4287 76.6611 28.9456 76.6611 28.9456C76.6611 28.9456 77.2633 28.9728 77.3727 29H95.0259C95.0259 29 102.58 28.4015 102.58 21.1651L102.525 10.4737ZM26.1923 28.9456H62.3744C68.6693 27.6942 69.3262 21.9812 69.3262 21.9812C69.6273 20.2946 69.4631 18.9071 69.4631 18.9071C69.2715 17.7645 67.0819 12.7045 62.3744 12.2692C59.5554 11.9972 34.4578 10.0113 34.4578 10.0113C34.9505 12.5141 36.0726 13.7927 36.839 14.5C38.5906 16.1595 41.3549 16.6492 41.3549 16.6492L60.7049 18.2542C61.307 18.2814 62.4292 18.4447 62.4018 19.9137C62.4018 20.1041 62.2376 21.3827 60.8144 21.3827H33.7462V9.95685L26.2197 9.41276C26.1923 9.41276 26.1923 28.9456 26.1923 28.9456ZM102.58 29H130.277C137.229 28.5919 138.214 22.0356 138.214 22.0356C138.461 20.3218 138.269 18.9071 138.269 18.9071C138.078 17.3565 135.861 12.6773 131.126 12.2148C128.334 11.9428 103.072 10.4737 103.072 10.4737C103.811 13.0582 104.824 13.8471 105.59 14.5544C107.342 16.2411 109.942 16.622 109.942 16.622C110.599 16.6764 129.484 18.2542 129.484 18.2542C130.086 18.2814 131.317 18.3358 131.317 19.8049C131.317 20.2402 131.098 20.7026 130.825 20.9475C130.825 20.9475 130.168 21.3011 129.538 21.3011H102.662L102.58 29Z" fill="white"/>
</svg>
