<svg width="147" height="32" viewBox="0 0 147 32" fill="none" xmlns="http://www.w3.org/2000/svg">
<g id="Group">
<path id="Vector" d="M61.3841 15.4078V15.4062C61.0631 14.2189 60.76 13.1635 60.4867 12.3697C59.4305 9.32861 58.3338 5.97892 55.0801 5.94966C55.0801 5.94966 53.2106 5.62679 51.2552 5.91514C51.2552 5.91514 45.0764 7.1033 41.5116 9.71737C44.6009 9.71737 48.6409 9.24242 50.0668 10.1928C51.917 11.4263 52.7148 12.6235 52.7148 15.242C52.7148 15.299 52.713 15.3538 52.7093 15.4075C52.6748 15.9078 52.4916 16.2665 52.3769 16.7628H51.3632C50.3915 16.0024 49.5741 15.7518 48.3219 15.4112C48.3165 15.4092 48.3107 15.4081 48.3048 15.4081V15.4065C46.158 14.824 44.7026 14.6991 42.5941 15.407H42.5901C42.5859 15.4081 42.5817 15.4099 42.5775 15.4112C39.6843 16.3851 37.3994 18.2551 36.7049 20.9235C36.536 21.5724 36.4614 22.2701 36.4951 23.0141C36.6598 26.6052 39.1653 28.8084 42.5775 29.941C44.7037 30.6468 46.1217 30.3629 48.3219 29.941C51.6795 29.2971 53.0105 27.3219 56.0935 25.886C56.0935 27.4489 56.1359 29.941 56.1359 29.941H65.2172V27.5754C64.509 26.7837 63.6671 23.9988 62.8387 20.9235C62.3382 19.0651 61.8422 17.101 61.3841 15.4078ZM54.4046 23.0139C54.2082 25.207 52.2119 26.6601 50.0117 26.5617C47.8235 26.464 45.9556 24.8659 45.9567 22.676C45.9543 22.0654 46.1036 21.4639 46.3913 20.9253C47.0399 19.7153 48.3459 18.9077 49.8427 18.7896C51.5032 18.6594 53.1373 19.5619 53.9272 20.9232C54.287 21.5426 54.4718 22.2577 54.4046 23.0139ZM119.143 15.4078C118.375 11.9648 116.831 9.56397 113.538 7.97677C112.059 7.30098 111.391 6.4594 109.821 5.9494C107.189 5.09438 105.378 5.16186 102.724 5.9494C97.9318 7.37214 95.0863 10.6243 94.0692 15.4078V15.4089C94.0212 15.6338 93.9778 15.8598 93.939 16.0865C93.6485 17.7749 93.6441 18.7918 93.939 20.4794C93.9656 20.6301 93.9928 20.7772 94.0212 20.9232C94.4748 23.2287 95.1928 24.6664 96.7832 26.5401C100.23 30.602 104.663 31.9538 109.821 30.6167C114.908 29.2971 118.161 25.9982 119.198 20.9235H119.198C119.227 20.7767 119.256 20.6288 119.282 20.4796C119.578 18.7923 119.598 17.7707 119.282 16.0868C119.24 15.8597 119.193 15.6333 119.143 15.4078ZM109.804 29.1545C106.536 30.2894 105.522 25.571 103.989 20.9224C103.917 20.7042 103.843 20.4854 103.769 20.2683C103.583 19.7269 102.817 17.689 102.228 15.4083H102.228C101.382 12.1301 100.906 8.3542 103.056 7.81678C106.095 7.05665 107.465 11.5207 108.546 15.4083C108.818 16.3804 109.071 17.3192 109.328 18.1294C109.659 19.0448 109.998 19.9905 110.304 20.9256H110.304C111.539 24.6983 112.25 28.3045 109.804 29.1545ZM89.0095 5.94966C87.6099 5.57144 86.7296 5.75752 85.2929 5.94966C82.5397 6.3176 81.4912 8.65282 78.7037 8.65282C77.0561 8.65282 77.0264 6.52371 75.4932 5.94966C73.8891 5.34873 71.1005 5.94966 71.1005 5.94966C68.6362 7.22876 66.8344 8.10381 64.3427 9.66624C66.2011 9.66624 69.0734 9.29092 69.0734 11.3697V29.941H77.5208V12.7078C77.5208 11.356 78.7037 10.3423 80.0553 10.3423C81.4069 10.3423 82.5892 11.356 82.5892 12.7078V29.941H91.0371V7.97703C90.8365 7.0896 90.141 6.25514 89.0095 5.94966ZM144.973 5.94966C143.573 5.57144 142.693 5.75752 141.256 5.94966C138.503 6.3176 137.454 8.65282 134.667 8.65282C133.02 8.65282 132.99 6.52371 131.457 5.94966C129.852 5.34873 127.064 5.94966 127.064 5.94966C124.6 7.22876 122.798 8.10381 120.305 9.66624C122.164 9.66624 125.036 9.29092 125.036 11.3697V29.941H133.484V12.7078C133.484 11.356 134.667 10.3423 136.018 10.3423C137.37 10.3423 138.552 11.356 138.552 12.7078V29.941H147V7.97703C146.8 7.0896 146.104 6.25514 144.973 5.94966ZM35.4819 7.90824C34.0484 6.01239 33.0395 5.0422 31.0891 3.68456C27.975 1.51697 25.7175 0.869915 21.9656 0.305615C19.2288 -0.106078 17.6078 -0.0976438 14.8696 0.305615C12.1469 0.705975 10.5078 0.98035 8.11119 2.33298C2.90466 5.27124 0.0860657 9.36445 0.00146037 15.3422C0.000933232 15.3635 0.000933233 15.3849 0.000669664 15.4068V15.4075C-0.0188344 17.4378 0.388378 19.2775 1.13401 20.923H1.1348C3.40439 25.925 8.80859 29.1199 14.8693 30.3785C17.8374 30.995 19.6502 30.8687 22.6409 30.3785C25.8077 29.8592 27.6983 29.3867 30.4127 27.6753C32.3473 26.4553 33.3589 25.5605 34.8056 23.7895L33.7922 22.6069C32.4622 24.1778 31.5224 24.9614 29.7372 25.9856C27.1311 27.4819 25.3024 28.2027 22.3033 28.0132C17.698 27.7222 14.0004 24.8717 12.2505 20.923H12.25C11.5415 19.3234 11.1525 17.5432 11.1525 15.6795C11.1525 15.5878 11.1536 15.4966 11.1554 15.4075V15.4052C11.3014 8.3513 17.073 2.67035 24.162 2.67035C26.8229 2.67035 28.8503 3.2618 30.4133 5.3735C27.9212 8.45672 25.0067 14.1593 25.0067 14.1593L35.4819 7.90824Z" fill="white"/>
</g>
</svg>
