<svg width="147" height="24" viewBox="0 0 147 24" fill="none" xmlns="http://www.w3.org/2000/svg">
<g id="Group 1000001744">
<path id="Vector" fill-rule="evenodd" clip-rule="evenodd" d="M0 23.0518L5.12059 0H14.2619L14.6792 12.8776L20.8328 0H29.9958L24.8543 23.0518H18.2173L20.9641 10.6577L14.7896 23.0518H10.0204L9.77863 10.6577L6.70226 23.0518H0ZM30.7879 3.75721H36.9624L37.7972 0H31.6001L30.7879 3.75721ZM32.6774 23.0744L26.4586 23.0518L30.2601 5.97708H36.479L32.6774 23.0744ZM56.2353 5.97708H61.795L61.3115 8.08654C62.081 7.14139 63.0036 6.54836 64.1688 6.15273C65.1039 5.84123 66.0838 5.68526 67.0695 5.69103L65.6409 11.2507C65.2896 11.2507 60.9828 10.4151 59.642 16.9861L58.2578 23.0727H52.3894L56.2353 5.97708Z" fill="white"/>
<path id="Vector_2" fill-rule="evenodd" clip-rule="evenodd" d="M52.9833 16.7453C52.9833 16.8766 51.0277 23.7328 42.4351 23.558C30.9193 23.3163 33.9086 4.85722 46.9836 5.51632C54.4111 5.88936 54.038 12.0647 53.9719 12.329H47.5549C47.6427 12.0873 47.8627 9.53784 45.8185 9.58217C42.0169 9.69258 39.3136 19.1191 43.5108 19.2077C45.4446 19.2738 46.3463 17.0322 46.5219 16.747H52.9833V16.7453ZM108.119 23.6241C95.6158 23.0963 99.373 4.68074 112.207 5.29634C124.272 5.88937 120.842 24.1293 108.119 23.6241ZM111.789 9.31703C107.636 8.48228 104.537 18.4591 108.494 19.2721C112.888 20.1956 115.834 10.1309 111.789 9.31703Z" fill="white"/>
<path id="Vector_3" fill-rule="evenodd" clip-rule="evenodd" d="M131.546 3.4502C129.831 3.4502 129.503 4.1093 129.217 5.40576L129.105 5.97704H132.732L133.634 1.84594H139.302L138.423 5.97704H141.346L140.49 9.91074H137.566L135.962 17.4043C135.896 17.8216 135.742 18.1947 135.896 18.6564C136.138 19.3372 138.577 19.0529 138.577 19.0529L137.633 22.9648C137.633 22.9648 132.666 23.5361 130.995 22.3709C130.248 21.8657 129.435 20.811 129.941 18.5476L131.852 9.93332L128.446 9.91158L125.568 23.0526H119.458L122.315 9.91158H119.172L120.051 5.97787H123.106C123.654 3.78059 124.138 2.2859 125.5 1.14335C127.369 -0.373091 132.226 0.219937 132.226 0.219937L131.546 3.4502ZM76.695 17.2069L88.2971 17.1851C88.2971 17.1851 87.3084 19.7563 90.9569 19.7789C93.4837 19.7789 94.4724 16.8999 91.0665 16.3069C89.5065 16.0208 83.4634 15.0096 84.1451 10.3507C84.7172 6.52741 88.6935 5.18662 93.0454 5.2527C101.946 5.36227 100.276 10.5933 100.385 10.9446H94.4515C94.4515 10.9446 95.0888 8.74728 92.4081 8.74728C89.9691 8.74728 89.3744 10.9446 92.1873 11.5376C95.6166 12.2853 99.5503 12.461 99.7686 16.8782C99.8339 18.1094 99.1104 23.8656 90.1431 23.6908C81.9244 23.5152 81.3539 19.6476 81.5731 17.8459C80.0784 20.9883 76.3421 23.7795 71.3545 23.6038C58.8508 23.2082 62.6523 4.68226 75.4638 5.32045C81.2878 5.60567 83.5077 10.0228 82.8034 14.3739C82.6939 15.1434 82.6286 15.253 82.4078 15.3191L76.695 17.2069ZM75.0021 9.29513C70.8919 8.48213 67.8164 18.4147 71.7493 19.2502C76.102 20.1519 79.0245 10.109 75.0021 9.29513ZM144.775 5.95529C147.742 5.95529 147.742 10.3724 144.775 10.3724C141.808 10.3724 141.808 5.95529 144.775 5.95529ZM144.775 6.35092C142.292 6.35092 142.292 9.95507 144.775 9.95507C147.279 9.95507 147.279 6.35092 144.775 6.35092ZM145.171 8.41605L145.61 9.29513H145.082L144.731 8.41605H144.422L144.291 9.36121H143.829L144.203 7.01002H145.279C145.279 7.01002 145.872 7.16392 145.828 7.7352C145.764 8.41605 145.215 8.41605 145.171 8.41605ZM145.059 7.31783H144.622L144.511 8.08734H144.95C144.95 8.08734 145.389 8.15342 145.433 7.71346C145.433 7.31783 145.059 7.31783 145.059 7.31783Z" fill="white"/>
</g>
</svg>
